<svg width="64" height="17" viewBox="0 0 64 17" fill="none" xmlns="http://www.w3.org/2000/svg">
<path d="M0.159995 3.152C0.223995 2.16 0.602661 1.38667 1.29599 0.832005C1.99999 0.277337 2.89599 3.8147e-06 3.98399 3.8147e-06C4.73066 3.8147e-06 5.37599 0.133337 5.91999 0.400004C6.46399 0.666671 6.87466 1.02934 7.152 1.488C7.42933 1.94667 7.568 2.464 7.568 3.04C7.568 3.70134 7.392 4.26667 7.04 4.736C6.68799 5.20534 6.26666 5.52 5.77599 5.68V5.744C6.40533 5.936 6.896 6.288 7.248 6.8C7.6 7.30134 7.776 7.94667 7.776 8.736C7.776 9.36534 7.632 9.92534 7.344 10.416C7.05599 10.9067 6.62933 11.296 6.06399 11.584C5.49866 11.8613 4.82133 12 4.03199 12C2.87999 12 1.93066 11.7067 1.18399 11.12C0.447995 10.5227 0.053328 9.66934 -5.36442e-06 8.56H1.75999C1.80266 9.12534 2.02133 9.58934 2.41599 9.952C2.81066 10.304 3.34399 10.48 4.016 10.48C4.66666 10.48 5.16799 10.304 5.51999 9.952C5.87199 9.58934 6.048 9.12534 6.048 8.56C6.048 7.81334 5.808 7.28534 5.32799 6.976C4.85866 6.656 4.13333 6.496 3.15199 6.496H2.73599V4.992H3.16799C4.03199 4.98134 4.68799 4.83734 5.13599 4.56C5.59466 4.28267 5.824 3.84534 5.824 3.248C5.824 2.736 5.65866 2.33067 5.32799 2.032C4.99733 1.72267 4.52799 1.568 3.91999 1.568C3.32266 1.568 2.85866 1.72267 2.52799 2.032C2.19733 2.33067 1.99999 2.704 1.93599 3.152H0.159995ZM11.756 0.0960045V11.936H9.93199V0.0960045H11.756ZM22.2307 7.312C22.2307 7.64267 22.2094 7.94134 22.1667 8.208H15.4307C15.4841 8.912 15.7454 9.47734 16.2147 9.904C16.6841 10.3307 17.2601 10.544 17.9427 10.544C18.9241 10.544 19.6174 10.1333 20.0227 9.312H21.9907C21.7241 10.1227 21.2387 10.7893 20.5347 11.312C19.8414 11.824 18.9774 12.08 17.9427 12.08C17.1001 12.08 16.3427 11.8933 15.6707 11.52C15.0094 11.136 14.4867 10.6027 14.1027 9.92C13.7294 9.22667 13.5427 8.42667 13.5427 7.52C13.5427 6.61334 13.7241 5.81867 14.0867 5.136C14.4601 4.44267 14.9774 3.90934 15.6387 3.536C16.3107 3.16267 17.0787 2.976 17.9427 2.976C18.7747 2.976 19.5161 3.15734 20.1667 3.52C20.8174 3.88267 21.3241 4.39467 21.6867 5.056C22.0494 5.70667 22.2307 6.45867 22.2307 7.312ZM20.3267 6.736C20.3161 6.064 20.0761 5.52534 19.6067 5.12C19.1374 4.71467 18.5561 4.512 17.8627 4.512C17.2334 4.512 16.6947 4.71467 16.2467 5.12C15.7987 5.51467 15.5321 6.05334 15.4467 6.736H20.3267ZM27.5777 2.976C28.2604 2.976 28.8631 3.11467 29.3857 3.392C29.9191 3.65867 30.3351 3.99467 30.6337 4.4V3.12H32.4737V12.08C32.4737 12.8907 32.3031 13.6107 31.9617 14.24C31.6204 14.88 31.1244 15.3813 30.4737 15.744C29.8337 16.1067 29.0657 16.288 28.1697 16.288C26.9751 16.288 25.9831 16.0053 25.1937 15.44C24.4044 14.8853 23.9564 14.128 23.8497 13.168H25.6577C25.7964 13.6267 26.0897 13.9947 26.5377 14.272C26.9964 14.56 27.5404 14.704 28.1697 14.704C28.9057 14.704 29.4977 14.48 29.9457 14.032C30.4044 13.584 30.6337 12.9333 30.6337 12.08V10.608C30.3244 11.024 29.9031 11.376 29.3697 11.664C28.8471 11.9413 28.2497 12.08 27.5777 12.08C26.8097 12.08 26.1057 11.888 25.4657 11.504C24.8364 11.1093 24.3351 10.5653 23.9617 9.872C23.5991 9.168 23.4177 8.37334 23.4177 7.488C23.4177 6.60267 23.5991 5.81867 23.9617 5.136C24.3351 4.45334 24.8364 3.92534 25.4657 3.552C26.1057 3.168 26.8097 2.976 27.5777 2.976ZM30.6337 7.52C30.6337 6.912 30.5057 6.384 30.2497 5.936C30.0044 5.488 29.6791 5.14667 29.2737 4.912C28.8684 4.67734 28.4311 4.56 27.9617 4.56C27.4924 4.56 27.0551 4.67734 26.6497 4.912C26.2444 5.136 25.9137 5.472 25.6577 5.92C25.4124 6.35734 25.2897 6.88 25.2897 7.488C25.2897 8.096 25.4124 8.62934 25.6577 9.088C25.9137 9.54667 26.2444 9.89867 26.6497 10.144C27.0657 10.3787 27.5031 10.496 27.9617 10.496C28.4311 10.496 28.8684 10.3787 29.2737 10.144C29.6791 9.90934 30.0044 9.568 30.2497 9.12C30.5057 8.66134 30.6337 8.128 30.6337 7.52ZM34.2615 7.488C34.2615 6.60267 34.4428 5.81867 34.8055 5.136C35.1788 4.45334 35.6802 3.92534 36.3095 3.552C36.9495 3.168 37.6535 2.976 38.4215 2.976C39.1148 2.976 39.7175 3.11467 40.2295 3.392C40.7522 3.65867 41.1682 3.99467 41.4775 4.4V3.12H43.3175V11.936H41.4775V10.624C41.1682 11.04 40.7468 11.3867 40.2135 11.664C39.6802 11.9413 39.0722 12.08 38.3895 12.08C37.6322 12.08 36.9388 11.888 36.3095 11.504C35.6802 11.1093 35.1788 10.5653 34.8055 9.872C34.4428 9.168 34.2615 8.37334 34.2615 7.488ZM41.4775 7.52C41.4775 6.912 41.3495 6.384 41.0935 5.936C40.8482 5.488 40.5228 5.14667 40.1175 4.912C39.7122 4.67734 39.2748 4.56 38.8055 4.56C38.3362 4.56 37.8988 4.67734 37.4935 4.912C37.0882 5.136 36.7575 5.472 36.5015 5.92C36.2562 6.35734 36.1335 6.88 36.1335 7.488C36.1335 8.096 36.2562 8.62934 36.5015 9.088C36.7575 9.54667 37.0882 9.89867 37.4935 10.144C37.9095 10.3787 38.3468 10.496 38.8055 10.496C39.2748 10.496 39.7122 10.3787 40.1175 10.144C40.5228 9.90934 40.8482 9.568 41.0935 9.12C41.3495 8.66134 41.4775 8.128 41.4775 7.52ZM50.1612 2.976C50.8546 2.976 51.4732 3.12 52.0172 3.408C52.5719 3.696 53.0039 4.12267 53.3132 4.688C53.6226 5.25334 53.7772 5.936 53.7772 6.736V11.936H51.9692V7.008C51.9692 6.21867 51.7719 5.616 51.3772 5.2C50.9826 4.77334 50.4439 4.56 49.7612 4.56C49.0786 4.56 48.5346 4.77334 48.1292 5.2C47.7346 5.616 47.5372 6.21867 47.5372 7.008V11.936H45.7132V3.12H47.5372V4.128C47.8359 3.76534 48.2146 3.48267 48.6732 3.28C49.1426 3.07734 49.6386 2.976 50.1612 2.976ZM58.2319 4.608V9.488C58.2319 9.81867 58.3065 10.0587 58.4559 10.208C58.6159 10.3467 58.8825 10.416 59.2559 10.416H60.3759V11.936H58.9359C58.1145 11.936 57.4852 11.744 57.0479 11.36C56.6105 10.976 56.3919 10.352 56.3919 9.488V4.608H55.3519V3.12H56.3919V0.928004H58.2319V3.12H60.3759V4.608H58.2319Z" fill="black"/>
<path d="M62.793 12.048C62.4623 12.048 62.185 11.936 61.961 11.712C61.737 11.488 61.625 11.2107 61.625 10.88C61.625 10.5493 61.737 10.272 61.961 10.048C62.185 9.824 62.4623 9.712 62.793 9.712C63.113 9.712 63.385 9.824 63.609 10.048C63.833 10.272 63.945 10.5493 63.945 10.88C63.945 11.2107 63.833 11.488 63.609 11.712C63.385 11.936 63.113 12.048 62.793 12.048Z" fill="#6C7275"/>
</svg>
