<svg width="96" height="25" viewBox="0 0 96 25" fill="none" xmlns="http://www.w3.org/2000/svg">
<path d="M0.240023 4.72805C0.336023 3.24005 0.904023 2.08005 1.94402 1.24805C3.00002 0.416052 4.34402 5.14984e-05 5.97602 5.14984e-05C7.09602 5.14984e-05 8.06402 0.200052 8.88002 0.600052C9.69602 1.00005 10.312 1.54405 10.728 2.23205C11.144 2.92005 11.352 3.69605 11.352 4.56005C11.352 5.55205 11.088 6.40005 10.56 7.10405C10.032 7.80805 9.40002 8.28005 8.66402 8.52005V8.61605C9.60802 8.90405 10.344 9.43205 10.872 10.2001C11.4 10.9521 11.664 11.9201 11.664 13.1041C11.664 14.0481 11.448 14.8881 11.016 15.6241C10.584 16.3601 9.94402 16.9441 9.09602 17.3761C8.24802 17.7921 7.23202 18.0001 6.04802 18.0001C4.32002 18.0001 2.89602 17.5601 1.77602 16.6801C0.672023 15.7841 0.0800225 14.5041 2.2471e-05 12.8401H2.64002C2.70402 13.6881 3.03202 14.3841 3.62402 14.9281C4.21602 15.4561 5.01602 15.7201 6.02402 15.7201C7.00002 15.7201 7.75202 15.4561 8.28002 14.9281C8.80802 14.3841 9.07202 13.6881 9.07202 12.8401C9.07202 11.7201 8.71202 10.9281 7.99202 10.4641C7.28802 9.98405 6.20002 9.74405 4.72802 9.74405H4.10402V7.48805H4.75202C6.04802 7.47205 7.03202 7.25605 7.70402 6.84005C8.39202 6.42405 8.73602 5.76805 8.73602 4.87205C8.73602 4.10405 8.48802 3.49605 7.99202 3.04805C7.49602 2.58405 6.79202 2.35205 5.88002 2.35205C4.98402 2.35205 4.28802 2.58405 3.79202 3.04805C3.29602 3.49605 3.00002 4.05605 2.90402 4.72805H0.240023ZM17.634 0.144053V17.9041H14.898V0.144053H17.634ZM33.3461 10.9681C33.3461 11.4641 33.3141 11.9121 33.2501 12.3121H23.1461C23.2261 13.3681 23.6181 14.2161 24.3221 14.8561C25.0261 15.4961 25.8901 15.8161 26.9141 15.8161C28.3861 15.8161 29.4261 15.2001 30.0341 13.9681H32.9861C32.5861 15.1841 31.8581 16.1841 30.8021 16.9681C29.7621 17.7361 28.4661 18.1201 26.9141 18.1201C25.6501 18.1201 24.5141 17.8401 23.5061 17.2801C22.5141 16.7041 21.7301 15.9041 21.1541 14.8801C20.5941 13.8401 20.3141 12.6401 20.3141 11.2801C20.3141 9.92005 20.5861 8.72805 21.1301 7.70405C21.6901 6.66405 22.4661 5.86405 23.4581 5.30405C24.4661 4.74405 25.6181 4.46405 26.9141 4.46405C28.1621 4.46405 29.2741 4.73605 30.2501 5.28005C31.2261 5.82405 31.9861 6.59205 32.5301 7.58405C33.0741 8.56005 33.3461 9.68805 33.3461 10.9681ZM30.4901 10.1041C30.4741 9.09605 30.1141 8.28805 29.4101 7.68005C28.7061 7.07205 27.8341 6.76805 26.7941 6.76805C25.8501 6.76805 25.0421 7.07205 24.3701 7.68005C23.6981 8.27205 23.2981 9.08005 23.1701 10.1041H30.4901ZM41.3666 4.46405C42.3906 4.46405 43.2946 4.67205 44.0786 5.08805C44.8786 5.48805 45.5026 5.99205 45.9506 6.60005V4.68005H48.7106V18.1201C48.7106 19.3361 48.4546 20.4161 47.9426 21.3601C47.4306 22.3201 46.6866 23.0721 45.7106 23.6161C44.7506 24.1601 43.5986 24.4321 42.2546 24.4321C40.4626 24.4321 38.9746 24.0081 37.7906 23.1601C36.6066 22.3281 35.9346 21.1921 35.7746 19.7521H38.4866C38.6946 20.4401 39.1346 20.9921 39.8066 21.4081C40.4946 21.8401 41.3106 22.0561 42.2546 22.0561C43.3586 22.0561 44.2466 21.7201 44.9186 21.0481C45.6066 20.3761 45.9506 19.4001 45.9506 18.1201V15.9121C45.4866 16.5361 44.8546 17.0641 44.0546 17.4961C43.2706 17.9121 42.3746 18.1201 41.3666 18.1201C40.2146 18.1201 39.1586 17.8321 38.1986 17.2561C37.2546 16.6641 36.5026 15.8481 35.9426 14.8081C35.3986 13.7521 35.1266 12.5601 35.1266 11.2321C35.1266 9.90405 35.3986 8.72805 35.9426 7.70405C36.5026 6.68005 37.2546 5.88805 38.1986 5.32805C39.1586 4.75205 40.2146 4.46405 41.3666 4.46405ZM45.9506 11.2801C45.9506 10.3681 45.7586 9.57605 45.3746 8.90405C45.0066 8.23205 44.5186 7.72005 43.9106 7.36805C43.3026 7.01605 42.6466 6.84005 41.9426 6.84005C41.2386 6.84005 40.5826 7.01605 39.9746 7.36805C39.3666 7.70405 38.8706 8.20805 38.4866 8.88005C38.1186 9.53605 37.9346 10.3201 37.9346 11.2321C37.9346 12.1441 38.1186 12.9441 38.4866 13.6321C38.8706 14.3201 39.3666 14.8481 39.9746 15.2161C40.5986 15.5681 41.2546 15.7441 41.9426 15.7441C42.6466 15.7441 43.3026 15.5681 43.9106 15.2161C44.5186 14.8641 45.0066 14.3521 45.3746 13.6801C45.7586 12.9921 45.9506 12.1921 45.9506 11.2801ZM51.3923 11.2321C51.3923 9.90405 51.6643 8.72805 52.2083 7.70405C52.7683 6.68005 53.5203 5.88805 54.4643 5.32805C55.4243 4.75205 56.4803 4.46405 57.6323 4.46405C58.6723 4.46405 59.5763 4.67205 60.3443 5.08805C61.1283 5.48805 61.7523 5.99205 62.2163 6.60005V4.68005H64.9763V17.9041H62.2163V15.9361C61.7523 16.5601 61.1203 17.0801 60.3203 17.4961C59.5203 17.9121 58.6083 18.1201 57.5843 18.1201C56.4483 18.1201 55.4083 17.8321 54.4643 17.2561C53.5203 16.6641 52.7683 15.8481 52.2083 14.8081C51.6643 13.7521 51.3923 12.5601 51.3923 11.2321ZM62.2163 11.2801C62.2163 10.3681 62.0243 9.57605 61.6403 8.90405C61.2723 8.23205 60.7843 7.72005 60.1763 7.36805C59.5683 7.01605 58.9123 6.84005 58.2083 6.84005C57.5043 6.84005 56.8483 7.01605 56.2403 7.36805C55.6323 7.70405 55.1363 8.20805 54.7523 8.88005C54.3843 9.53605 54.2003 10.3201 54.2003 11.2321C54.2003 12.1441 54.3843 12.9441 54.7523 13.6321C55.1363 14.3201 55.6323 14.8481 56.2403 15.2161C56.8643 15.5681 57.5203 15.7441 58.2083 15.7441C58.9123 15.7441 59.5683 15.5681 60.1763 15.2161C60.7843 14.8641 61.2723 14.3521 61.6403 13.6801C62.0243 12.9921 62.2163 12.1921 62.2163 11.2801ZM75.2419 4.46405C76.2819 4.46405 77.2099 4.68005 78.0259 5.11205C78.8579 5.54405 79.5059 6.18405 79.9699 7.03205C80.4339 7.88005 80.6659 8.90405 80.6659 10.1041V17.9041H77.9539V10.5121C77.9539 9.32805 77.6579 8.42405 77.0659 7.80005C76.4739 7.16005 75.6659 6.84005 74.6419 6.84005C73.6179 6.84005 72.8019 7.16005 72.1939 7.80005C71.6019 8.42405 71.3059 9.32805 71.3059 10.5121V17.9041H68.5699V4.68005H71.3059V6.19205C71.7539 5.64805 72.3219 5.22405 73.0099 4.92005C73.7139 4.61605 74.4579 4.46405 75.2419 4.46405ZM87.3478 6.91205V14.2321C87.3478 14.7281 87.4598 15.0881 87.6838 15.3121C87.9238 15.5201 88.3238 15.6241 88.8838 15.6241H90.5638V17.9041H88.4038C87.1718 17.9041 86.2278 17.6161 85.5718 17.0401C84.9158 16.4641 84.5878 15.5281 84.5878 14.2321V6.91205H83.0278V4.68005H84.5878V1.39205H87.3478V4.68005H90.5638V6.91205H87.3478Z" fill="white"/>
<path d="M94.1895 18.0721C93.6935 18.0721 93.2775 17.9041 92.9415 17.5681C92.6055 17.2321 92.4375 16.8161 92.4375 16.3201C92.4375 15.8241 92.6055 15.4081 92.9415 15.0721C93.2775 14.7361 93.6935 14.5681 94.1895 14.5681C94.6695 14.5681 95.0775 14.7361 95.4135 15.0721C95.7495 15.4081 95.9175 15.8241 95.9175 16.3201C95.9175 16.8161 95.7495 17.2321 95.4135 17.5681C95.0775 17.9041 94.6695 18.0721 94.1895 18.0721Z" fill="#6C7275"/>
</svg>
